<mxfile modified="2022-05-20T01:26:23.425Z" host="app.diagrams.net" agent="5.0 (Windows NT 10.0; Win64; x64) AppleWebKit/537.36 (KHTML, like Gecko) Chrome/101.0.4951.54 Safari/537.36" etag="ZhNBDyKmlDvcGsKvrgYc" compressed="false" version="18.0.8" type="google">
  <diagram id="5vKPIbCIWK__K9a_hM_l" name="Functionality/System Logical Module/Diagnostics">
    <mxGraphModel grid="1" page="1" gridSize="10" guides="1" tooltips="1" connect="1" arrows="1" fold="1" pageScale="1" pageWidth="827" pageHeight="1169" math="0" shadow="0">
      <root>
        <mxCell id="6zsalb_4Q6Wy_RO658KX-0" />
        <mxCell id="aUDsEq78Ny2xMxmlCQFK-10" value="Diagram/Use Case" style="" parent="6zsalb_4Q6Wy_RO658KX-0" />
        <mxCell id="G2YGzBIEyCHCyImguqGH-0" value="Actor" style="shape=umlActor;verticalLabelPosition=bottom;labelBackgroundColor=#ffffff;verticalAlign=top;html=1;shadow=0;glass=0;comic=0;strokeColor=#B3B3B3;strokeWidth=1;fillColor=none;fontSize=12;fontColor=#000000;align=center;" vertex="1" parent="aUDsEq78Ny2xMxmlCQFK-10">
          <mxGeometry x="130" y="280" width="20" height="40" as="geometry" />
        </mxCell>
        <mxCell id="G2YGzBIEyCHCyImguqGH-1" value="View Paged Diagnostic&lt;br style=&quot;font-size: 12px&quot;&gt;Log Records" style="ellipse;whiteSpace=wrap;html=1;shadow=0;glass=0;comic=0;strokeColor=#d6b656;strokeWidth=2;fillColor=none;fontSize=12;align=center;" vertex="1" parent="aUDsEq78Ny2xMxmlCQFK-10">
          <mxGeometry x="240" y="280" width="120" height="40" as="geometry" />
        </mxCell>
        <mxCell id="aUDsEq78Ny2xMxmlCQFK-0" value="" style="endArrow=open;endFill=1;endSize=12;html=1;strokeColor=#000000;fontSize=12;entryX=0;entryY=0.5;entryDx=0;entryDy=0;" edge="1" parent="aUDsEq78Ny2xMxmlCQFK-10" target="G2YGzBIEyCHCyImguqGH-1">
          <mxGeometry width="160" relative="1" as="geometry">
            <mxPoint x="160" y="300" as="sourcePoint" />
            <mxPoint x="240" y="340" as="targetPoint" />
          </mxGeometry>
        </mxCell>
        <mxCell id="aUDsEq78Ny2xMxmlCQFK-5" value="Daemon" style="shape=umlActor;verticalLabelPosition=bottom;labelBackgroundColor=#ffffff;verticalAlign=top;html=1;shadow=0;glass=0;comic=0;strokeColor=#B3B3B3;strokeWidth=1;fillColor=none;fontSize=12;fontColor=#000000;align=center;" vertex="1" parent="aUDsEq78Ny2xMxmlCQFK-10">
          <mxGeometry x="130" y="200" width="20" height="40" as="geometry" />
        </mxCell>
        <mxCell id="aUDsEq78Ny2xMxmlCQFK-6" value="Write Log entries to a Diagnostics Log" style="ellipse;whiteSpace=wrap;html=1;shadow=0;glass=0;comic=0;strokeColor=#d6b656;strokeWidth=2;fillColor=none;fontSize=12;align=center;" vertex="1" parent="aUDsEq78Ny2xMxmlCQFK-10">
          <mxGeometry x="240" y="200" width="120" height="40" as="geometry" />
        </mxCell>
        <mxCell id="aUDsEq78Ny2xMxmlCQFK-7" value="" style="endArrow=open;endFill=1;endSize=12;html=1;strokeColor=#000000;fontSize=12;entryX=0;entryY=0.5;entryDx=0;entryDy=0;" edge="1" parent="aUDsEq78Ny2xMxmlCQFK-10" target="aUDsEq78Ny2xMxmlCQFK-6">
          <mxGeometry width="160" relative="1" as="geometry">
            <mxPoint x="160" y="220" as="sourcePoint" />
            <mxPoint x="250" y="230" as="targetPoint" />
          </mxGeometry>
        </mxCell>
        <mxCell id="xvw5Yh81JnMjIIq9px5H-0" value="View Single Diagnostic&lt;br style=&quot;font-size: 12px&quot;&gt;Log Record" style="ellipse;whiteSpace=wrap;html=1;shadow=0;glass=0;comic=0;strokeColor=#d6b656;strokeWidth=2;fillColor=none;fontSize=12;align=center;" vertex="1" parent="aUDsEq78Ny2xMxmlCQFK-10">
          <mxGeometry x="240" y="340" width="120" height="40" as="geometry" />
        </mxCell>
        <mxCell id="xvw5Yh81JnMjIIq9px5H-1" value="" style="endArrow=open;endFill=1;endSize=12;html=1;strokeColor=#000000;fontSize=12;entryX=0;entryY=0.5;entryDx=0;entryDy=0;" edge="1" parent="aUDsEq78Ny2xMxmlCQFK-10" target="xvw5Yh81JnMjIIq9px5H-0">
          <mxGeometry width="160" relative="1" as="geometry">
            <mxPoint x="160" y="300" as="sourcePoint" />
            <mxPoint x="250" y="310" as="targetPoint" />
          </mxGeometry>
        </mxCell>
        <mxCell id="fQ8Tb4TJHlXgaxiWL6We-0" value="Title/Diagram" parent="6zsalb_4Q6Wy_RO658KX-0" />
        <mxCell id="pR05Vp6-c_UAXGHB-9SX-1" value="&lt;font style=&quot;font-size: 12px&quot;&gt;Diagram: Base System Logical Module -&amp;nbsp;Functionality -&amp;nbsp;Diagnostics&lt;/font&gt;" style="text;strokeColor=none;fillColor=none;html=1;fontSize=24;fontStyle=2;verticalAlign=middle;align=left;shadow=0;glass=0;comic=0;opacity=30;fontColor=#808080;" vertex="1" parent="fQ8Tb4TJHlXgaxiWL6We-0">
          <mxGeometry x="120" y="420" width="520" height="20" as="geometry" />
        </mxCell>
        <mxCell id="FPPdZPXUPv9n0KayTUjE-1" value="To be valuable for diagnostic purposes Log entries must contain: Host Device Identifier, UTC datetime, thread, sessionId, principalId, tenantId,&amp;nbsp; memberId, Id,Message,&amp;nbsp;" style="shape=note;whiteSpace=wrap;html=1;size=14;verticalAlign=top;align=left;spacingTop=-6;strokeWidth=1;fontSize=12;fontStyle=2;spacingRight=16;" vertex="1" parent="fQ8Tb4TJHlXgaxiWL6We-0">
          <mxGeometry x="400" y="200" width="160" height="120" as="geometry" />
        </mxCell>
        <mxCell id="kJFmuFiU3wEKo-ty_FbZ-0" value="About" style="" parent="6zsalb_4Q6Wy_RO658KX-0" />
        <UserObject label="" tooltip="ABOUT&#xa;&#xa;Functionality &#xa;within the Base Logical Module&#xa;for handling common Diagnostic Tracing.&#xa;Diagnostic tracing is not saved to the Core relational database -- it usually goes to a rolling text log file, and sometimes is saved asynchronously to an cloud service.&#xa;&#xa;System specific Diagnostic log files should be local to the system (for both latency and access reasons) -- then exported to a central location for security and/or enterprise monitoring reasons." id="XdkydOQAid-UxDZSyXBN-0">
          <mxCell style="shape=image;html=1;verticalAlign=top;verticalLabelPosition=bottom;labelBackgroundColor=#ffffff;imageAspect=0;aspect=fixed;image=https://cdn1.iconfinder.com/data/icons/hawcons/32/699014-icon-28-information-128.png;shadow=0;dashed=0;fontFamily=Helvetica;fontSize=12;fontColor=#000000;align=center;strokeColor=#000000;fillColor=#505050;dashPattern=1 1;" vertex="1" parent="kJFmuFiU3wEKo-ty_FbZ-0">
            <mxGeometry x="660" y="380" width="20" height="20" as="geometry" />
          </mxCell>
        </UserObject>
      </root>
    </mxGraphModel>
  </diagram>
</mxfile>
